<svg width="300" height="283" viewBox="0 0 300 283" fill="none" xmlns="http://www.w3.org/2000/svg">
<rect x="0.5" y="0.5" width="299" height="281.983" rx="23.5" fill="white"/>
<rect x="0.5" y="0.5" width="299" height="281.983" rx="23.5" stroke="#E1E2E6"/>
<path d="M210.951 134.093C207.862 132.393 199.744 131.667 193.843 132.966C193.525 128.16 190.494 124.11 184.949 120.576L182.897 119.449L181.529 121.138C178.84 124.476 177.707 128.923 178.108 132.965C178.425 135.455 179.485 138.255 181.529 140.286C173.848 143.929 166.769 143.102 135.416 143.102H87.0109C86.8692 148.891 88.0072 160.027 96.6676 169.092C97.624 170.093 98.6736 171.062 99.8115 171.995C106.853 177.76 117.491 181.988 133.399 182C157.667 182.018 178.46 171.292 191.107 145.357C195.269 145.413 206.256 145.967 211.632 137.471C211.764 137.328 213 135.218 213 135.218L210.951 134.093ZM118.602 128.118H104.99V139.248H118.602V128.118ZM136.188 128.118H122.576V139.248H136.188V128.118ZM153.773 128.118H140.161V139.248H153.773V128.118ZM171.357 128.118H157.745V139.248H171.357V128.118ZM101.016 128.118H87.4041V139.248H101.016V128.118ZM118.602 114.059H104.99V125.19H118.602V114.059ZM136.188 114.059H122.576V125.19H136.188V114.059ZM153.773 114.059H140.161V125.19H153.773V114.059ZM153.773 100H140.161V111.13H153.773V100Z" fill="#1D63ED"/>
</svg>
